<mxfile host="app.diagrams.net" modified="2023-03-30T10:40:56.854Z" agent="Mozilla/5.0 (Windows NT 10.0; Win64; x64) AppleWebKit/537.36 (KHTML, like Gecko) Chrome/111.0.0.0 Safari/537.36 Edg/111.0.1661.54" etag="EVqs7rgqh2CcQLbEgSdr" version="21.1.1" type="github">
  <diagram name="Seite-1" id="4brWPz3R9tJ5ekjdA5t1">
    <mxGraphModel dx="1617" dy="796" grid="1" gridSize="10" guides="1" tooltips="1" connect="1" arrows="1" fold="1" page="1" pageScale="1" pageWidth="827" pageHeight="1169" math="0" shadow="0">
      <root>
        <mxCell id="0" />
        <mxCell id="1" parent="0" />
        <mxCell id="9QykwS-PiCuBDbRHtT6s-1" value="BuilingApplication02&lt;br&gt;&lt;br&gt;obpa:BuildingApplication" style="rounded=1;whiteSpace=wrap;html=1;" vertex="1" parent="1">
          <mxGeometry x="80" y="154" width="140" height="60" as="geometry" />
        </mxCell>
        <mxCell id="9QykwS-PiCuBDbRHtT6s-7" value="" style="endArrow=none;html=1;rounded=0;exitX=0;exitY=0.5;exitDx=0;exitDy=0;entryX=1;entryY=0.5;entryDx=0;entryDy=0;" edge="1" parent="1" source="9QykwS-PiCuBDbRHtT6s-1" target="9QykwS-PiCuBDbRHtT6s-1">
          <mxGeometry width="50" height="50" relative="1" as="geometry">
            <mxPoint x="580" y="464" as="sourcePoint" />
            <mxPoint x="630" y="414" as="targetPoint" />
          </mxGeometry>
        </mxCell>
        <mxCell id="9QykwS-PiCuBDbRHtT6s-8" value="?&lt;br&gt;&lt;br&gt;obpa:ConstructionProject" style="rounded=1;whiteSpace=wrap;html=1;" vertex="1" parent="1">
          <mxGeometry x="80" y="269" width="140" height="60" as="geometry" />
        </mxCell>
        <mxCell id="9QykwS-PiCuBDbRHtT6s-9" value="" style="endArrow=none;html=1;rounded=0;exitX=0;exitY=0.5;exitDx=0;exitDy=0;entryX=1;entryY=0.5;entryDx=0;entryDy=0;" edge="1" parent="1" source="9QykwS-PiCuBDbRHtT6s-8" target="9QykwS-PiCuBDbRHtT6s-8">
          <mxGeometry width="50" height="50" relative="1" as="geometry">
            <mxPoint x="590" y="440" as="sourcePoint" />
            <mxPoint x="640" y="390" as="targetPoint" />
          </mxGeometry>
        </mxCell>
        <mxCell id="9QykwS-PiCuBDbRHtT6s-10" value="BuilingApplication02&lt;br&gt;&lt;br&gt;obpa:BuildingApplication" style="rounded=1;whiteSpace=wrap;html=1;" vertex="1" parent="1">
          <mxGeometry x="660" y="700" width="140" height="60" as="geometry" />
        </mxCell>
        <mxCell id="9QykwS-PiCuBDbRHtT6s-11" value="" style="endArrow=none;html=1;rounded=0;exitX=0;exitY=0.5;exitDx=0;exitDy=0;entryX=1;entryY=0.5;entryDx=0;entryDy=0;" edge="1" parent="1" source="9QykwS-PiCuBDbRHtT6s-10" target="9QykwS-PiCuBDbRHtT6s-10">
          <mxGeometry width="50" height="50" relative="1" as="geometry">
            <mxPoint x="600" y="450" as="sourcePoint" />
            <mxPoint x="650" y="400" as="targetPoint" />
          </mxGeometry>
        </mxCell>
        <mxCell id="9QykwS-PiCuBDbRHtT6s-12" value="?&lt;br&gt;&lt;br&gt;obpa:Building" style="rounded=1;whiteSpace=wrap;html=1;" vertex="1" parent="1">
          <mxGeometry x="90" y="384" width="140" height="60" as="geometry" />
        </mxCell>
        <mxCell id="9QykwS-PiCuBDbRHtT6s-13" value="" style="endArrow=none;html=1;rounded=0;exitX=0;exitY=0.5;exitDx=0;exitDy=0;entryX=1;entryY=0.5;entryDx=0;entryDy=0;" edge="1" parent="1" source="9QykwS-PiCuBDbRHtT6s-12" target="9QykwS-PiCuBDbRHtT6s-12">
          <mxGeometry width="50" height="50" relative="1" as="geometry">
            <mxPoint x="610" y="460" as="sourcePoint" />
            <mxPoint x="660" y="410" as="targetPoint" />
          </mxGeometry>
        </mxCell>
        <mxCell id="9QykwS-PiCuBDbRHtT6s-14" value="? (residentalConstruction)&lt;br&gt;&lt;br&gt;obpa:Expertise" style="rounded=1;whiteSpace=wrap;html=1;" vertex="1" parent="1">
          <mxGeometry x="331" y="94" width="166" height="60" as="geometry" />
        </mxCell>
        <mxCell id="9QykwS-PiCuBDbRHtT6s-15" value="" style="endArrow=none;html=1;rounded=0;exitX=0;exitY=0.5;exitDx=0;exitDy=0;entryX=1;entryY=0.5;entryDx=0;entryDy=0;" edge="1" parent="1" source="9QykwS-PiCuBDbRHtT6s-14" target="9QykwS-PiCuBDbRHtT6s-14">
          <mxGeometry width="50" height="50" relative="1" as="geometry">
            <mxPoint x="620" y="504" as="sourcePoint" />
            <mxPoint x="670" y="454" as="targetPoint" />
          </mxGeometry>
        </mxCell>
        <mxCell id="9QykwS-PiCuBDbRHtT6s-16" value="building_law&lt;br&gt;&lt;br&gt;obpa:SubjectArea" style="rounded=1;whiteSpace=wrap;html=1;" vertex="1" parent="1">
          <mxGeometry x="344" y="394" width="140" height="60" as="geometry" />
        </mxCell>
        <mxCell id="9QykwS-PiCuBDbRHtT6s-17" value="" style="endArrow=none;html=1;rounded=0;exitX=0;exitY=0.5;exitDx=0;exitDy=0;entryX=1;entryY=0.5;entryDx=0;entryDy=0;" edge="1" parent="1" source="9QykwS-PiCuBDbRHtT6s-16" target="9QykwS-PiCuBDbRHtT6s-16">
          <mxGeometry width="50" height="50" relative="1" as="geometry">
            <mxPoint x="630" y="514" as="sourcePoint" />
            <mxPoint x="680" y="464" as="targetPoint" />
          </mxGeometry>
        </mxCell>
        <mxCell id="9QykwS-PiCuBDbRHtT6s-18" value="TechnicalBuildingOfficial&lt;br&gt;&lt;br&gt;obpa:Role" style="rounded=1;whiteSpace=wrap;html=1;" vertex="1" parent="1">
          <mxGeometry x="344" y="284" width="140" height="60" as="geometry" />
        </mxCell>
        <mxCell id="9QykwS-PiCuBDbRHtT6s-19" value="" style="endArrow=none;html=1;rounded=0;exitX=0;exitY=0.5;exitDx=0;exitDy=0;entryX=1;entryY=0.5;entryDx=0;entryDy=0;" edge="1" parent="1" source="9QykwS-PiCuBDbRHtT6s-18" target="9QykwS-PiCuBDbRHtT6s-18">
          <mxGeometry width="50" height="50" relative="1" as="geometry">
            <mxPoint x="640" y="524" as="sourcePoint" />
            <mxPoint x="690" y="474" as="targetPoint" />
          </mxGeometry>
        </mxCell>
        <mxCell id="9QykwS-PiCuBDbRHtT6s-20" value="BuildingAuthority_WeimarerLand&lt;br&gt;&lt;br&gt;obpa:Organisation" style="rounded=1;whiteSpace=wrap;html=1;" vertex="1" parent="1">
          <mxGeometry x="324" y="184" width="180" height="60" as="geometry" />
        </mxCell>
        <mxCell id="9QykwS-PiCuBDbRHtT6s-21" value="" style="endArrow=none;html=1;rounded=0;exitX=0;exitY=0.5;exitDx=0;exitDy=0;entryX=1;entryY=0.5;entryDx=0;entryDy=0;" edge="1" parent="1" source="9QykwS-PiCuBDbRHtT6s-20" target="9QykwS-PiCuBDbRHtT6s-20">
          <mxGeometry width="50" height="50" relative="1" as="geometry">
            <mxPoint x="650" y="534" as="sourcePoint" />
            <mxPoint x="700" y="484" as="targetPoint" />
          </mxGeometry>
        </mxCell>
        <mxCell id="9QykwS-PiCuBDbRHtT6s-22" value="? (BO5)&lt;br&gt;&lt;br&gt;obpa:Person" style="rounded=1;whiteSpace=wrap;html=1;" vertex="1" parent="1">
          <mxGeometry x="610" y="154" width="140" height="60" as="geometry" />
        </mxCell>
        <mxCell id="9QykwS-PiCuBDbRHtT6s-23" value="" style="endArrow=none;html=1;rounded=0;exitX=0;exitY=0.5;exitDx=0;exitDy=0;entryX=1;entryY=0.5;entryDx=0;entryDy=0;" edge="1" parent="1" source="9QykwS-PiCuBDbRHtT6s-22" target="9QykwS-PiCuBDbRHtT6s-22">
          <mxGeometry width="50" height="50" relative="1" as="geometry">
            <mxPoint x="300" y="394" as="sourcePoint" />
            <mxPoint x="350" y="344" as="targetPoint" />
          </mxGeometry>
        </mxCell>
        <mxCell id="9QykwS-PiCuBDbRHtT6s-26" value="" style="endArrow=classic;html=1;rounded=0;dashed=1;entryX=1;entryY=0.5;entryDx=0;entryDy=0;exitX=0.5;exitY=1;exitDx=0;exitDy=0;" edge="1" parent="1" source="9QykwS-PiCuBDbRHtT6s-22" target="9QykwS-PiCuBDbRHtT6s-16">
          <mxGeometry width="50" height="50" relative="1" as="geometry">
            <mxPoint x="760" y="244" as="sourcePoint" />
            <mxPoint x="530" y="234" as="targetPoint" />
            <Array as="points">
              <mxPoint x="680" y="424" />
            </Array>
          </mxGeometry>
        </mxCell>
        <mxCell id="9QykwS-PiCuBDbRHtT6s-27" value="obpa:hasSubjectArea" style="text;html=1;strokeColor=none;fillColor=none;align=center;verticalAlign=middle;whiteSpace=wrap;rounded=0;" vertex="1" parent="1">
          <mxGeometry x="560" y="399" width="100" height="30" as="geometry" />
        </mxCell>
        <mxCell id="9QykwS-PiCuBDbRHtT6s-28" value="" style="endArrow=classic;html=1;rounded=0;dashed=1;exitX=0.25;exitY=1;exitDx=0;exitDy=0;" edge="1" parent="1" source="9QykwS-PiCuBDbRHtT6s-22">
          <mxGeometry width="50" height="50" relative="1" as="geometry">
            <mxPoint x="690" y="224" as="sourcePoint" />
            <mxPoint x="480" y="314" as="targetPoint" />
            <Array as="points">
              <mxPoint x="645" y="314" />
            </Array>
          </mxGeometry>
        </mxCell>
        <mxCell id="9QykwS-PiCuBDbRHtT6s-29" value="obpa:hasRole" style="text;html=1;strokeColor=none;fillColor=none;align=center;verticalAlign=middle;whiteSpace=wrap;rounded=0;" vertex="1" parent="1">
          <mxGeometry x="530" y="284" width="100" height="30" as="geometry" />
        </mxCell>
        <mxCell id="9QykwS-PiCuBDbRHtT6s-30" value="&amp;gt;= 5 Jahre" style="rounded=0;whiteSpace=wrap;html=1;" vertex="1" parent="1">
          <mxGeometry x="360" y="514" width="120" height="60" as="geometry" />
        </mxCell>
        <mxCell id="9QykwS-PiCuBDbRHtT6s-31" value="" style="endArrow=classic;html=1;rounded=0;dashed=1;exitX=0.75;exitY=1;exitDx=0;exitDy=0;entryX=1;entryY=0.5;entryDx=0;entryDy=0;" edge="1" parent="1" source="9QykwS-PiCuBDbRHtT6s-22" target="9QykwS-PiCuBDbRHtT6s-30">
          <mxGeometry width="50" height="50" relative="1" as="geometry">
            <mxPoint x="725" y="454" as="sourcePoint" />
            <mxPoint x="560" y="554" as="targetPoint" />
            <Array as="points">
              <mxPoint x="715" y="544" />
            </Array>
          </mxGeometry>
        </mxCell>
        <mxCell id="9QykwS-PiCuBDbRHtT6s-32" value="obpa:work_experience" style="text;html=1;strokeColor=none;fillColor=none;align=center;verticalAlign=middle;whiteSpace=wrap;rounded=0;" vertex="1" parent="1">
          <mxGeometry x="587" y="514" width="100" height="30" as="geometry" />
        </mxCell>
        <mxCell id="9QykwS-PiCuBDbRHtT6s-33" value="" style="endArrow=classic;html=1;rounded=0;dashed=1;exitX=0;exitY=1;exitDx=0;exitDy=0;entryX=1;entryY=0.5;entryDx=0;entryDy=0;" edge="1" parent="1" source="9QykwS-PiCuBDbRHtT6s-22" target="9QykwS-PiCuBDbRHtT6s-20">
          <mxGeometry width="50" height="50" relative="1" as="geometry">
            <mxPoint x="536" y="124" as="sourcePoint" />
            <mxPoint x="430" y="134" as="targetPoint" />
            <Array as="points" />
          </mxGeometry>
        </mxCell>
        <mxCell id="9QykwS-PiCuBDbRHtT6s-34" value="obpa:employed_by" style="text;html=1;strokeColor=none;fillColor=none;align=center;verticalAlign=middle;whiteSpace=wrap;rounded=0;" vertex="1" parent="1">
          <mxGeometry x="510" y="224" width="106" height="20" as="geometry" />
        </mxCell>
        <mxCell id="9QykwS-PiCuBDbRHtT6s-36" value="" style="endArrow=classic;html=1;rounded=0;dashed=1;exitX=0;exitY=0;exitDx=0;exitDy=0;entryX=1;entryY=0.5;entryDx=0;entryDy=0;" edge="1" parent="1" source="9QykwS-PiCuBDbRHtT6s-22" target="9QykwS-PiCuBDbRHtT6s-14">
          <mxGeometry width="50" height="50" relative="1" as="geometry">
            <mxPoint x="675" y="244" as="sourcePoint" />
            <mxPoint x="510" y="344" as="targetPoint" />
            <Array as="points">
              <mxPoint x="610" y="124" />
            </Array>
          </mxGeometry>
        </mxCell>
        <mxCell id="9QykwS-PiCuBDbRHtT6s-37" value="obpa:hasExpertise" style="text;html=1;strokeColor=none;fillColor=none;align=center;verticalAlign=middle;whiteSpace=wrap;rounded=0;" vertex="1" parent="1">
          <mxGeometry x="504" y="124" width="100" height="30" as="geometry" />
        </mxCell>
        <mxCell id="9QykwS-PiCuBDbRHtT6s-39" value="" style="endArrow=classic;html=1;rounded=0;dashed=1;exitX=0.5;exitY=1;exitDx=0;exitDy=0;entryX=0.5;entryY=0;entryDx=0;entryDy=0;" edge="1" parent="1" source="9QykwS-PiCuBDbRHtT6s-1" target="9QykwS-PiCuBDbRHtT6s-8">
          <mxGeometry width="50" height="50" relative="1" as="geometry">
            <mxPoint x="685" y="220" as="sourcePoint" />
            <mxPoint x="520" y="320" as="targetPoint" />
            <Array as="points" />
          </mxGeometry>
        </mxCell>
        <mxCell id="9QykwS-PiCuBDbRHtT6s-40" value="obpa:includes" style="text;html=1;strokeColor=none;fillColor=none;align=center;verticalAlign=middle;whiteSpace=wrap;rounded=0;" vertex="1" parent="1">
          <mxGeometry x="10" y="230" width="100" height="30" as="geometry" />
        </mxCell>
        <mxCell id="9QykwS-PiCuBDbRHtT6s-41" value="" style="endArrow=classic;html=1;rounded=0;dashed=1;exitX=0.5;exitY=1;exitDx=0;exitDy=0;entryX=0.5;entryY=0;entryDx=0;entryDy=0;" edge="1" parent="1" source="9QykwS-PiCuBDbRHtT6s-8" target="9QykwS-PiCuBDbRHtT6s-12">
          <mxGeometry width="50" height="50" relative="1" as="geometry">
            <mxPoint x="695" y="230" as="sourcePoint" />
            <mxPoint x="530" y="330" as="targetPoint" />
            <Array as="points" />
          </mxGeometry>
        </mxCell>
        <mxCell id="9QykwS-PiCuBDbRHtT6s-42" value="obpa:hasBuilding" style="text;html=1;strokeColor=none;fillColor=none;align=center;verticalAlign=middle;whiteSpace=wrap;rounded=0;" vertex="1" parent="1">
          <mxGeometry x="50" y="344" width="100" height="30" as="geometry" />
        </mxCell>
        <mxCell id="9QykwS-PiCuBDbRHtT6s-43" value="" style="endArrow=classic;html=1;rounded=0;dashed=1;exitX=1;exitY=0.5;exitDx=0;exitDy=0;entryX=0;entryY=0.5;entryDx=0;entryDy=0;" edge="1" parent="1" source="9QykwS-PiCuBDbRHtT6s-12" target="9QykwS-PiCuBDbRHtT6s-14">
          <mxGeometry width="50" height="50" relative="1" as="geometry">
            <mxPoint x="705" y="240" as="sourcePoint" />
            <mxPoint x="540" y="340" as="targetPoint" />
            <Array as="points" />
          </mxGeometry>
        </mxCell>
        <mxCell id="9QykwS-PiCuBDbRHtT6s-44" value="obpa:isKindOf" style="text;html=1;strokeColor=none;fillColor=none;align=center;verticalAlign=middle;whiteSpace=wrap;rounded=0;" vertex="1" parent="1">
          <mxGeometry x="240" y="369" width="100" height="30" as="geometry" />
        </mxCell>
      </root>
    </mxGraphModel>
  </diagram>
</mxfile>
